<svg width="105" height="32" viewBox="0 0 105 32" fill="none" xmlns="http://www.w3.org/2000/svg">
<path d="M94.7788 31.064C88.0468 31.064 83.6468 26.444 83.6468 19.58C83.6468 12.76 87.9588 8.096 94.2948 8.096C100.631 8.096 104.767 12.1 104.943 18.744C104.943 19.228 104.899 19.756 104.855 20.284H87.4308V20.592C87.5628 24.86 90.2468 27.852 94.5148 27.852C97.6828 27.852 100.147 26.18 100.895 23.276H104.547C103.667 27.764 99.9708 31.064 94.7788 31.064ZM87.6508 17.292H101.071C100.719 13.42 98.0788 11.264 94.3388 11.264C91.0388 11.264 88.0028 13.64 87.6508 17.292Z" fill="black"/>
<path d="M77.6758 11.792V0H81.2838V30.8H78.1598L77.6758 27.192C76.1798 29.26 73.7598 31.064 69.9758 31.064C63.7718 31.064 59.1958 26.884 59.1958 19.58C59.1958 12.716 63.7718 8.096 69.9758 8.096C73.7598 8.096 76.3118 9.636 77.6758 11.792ZM70.3278 27.852C74.7278 27.852 77.7198 24.464 77.7198 19.668C77.7198 14.74 74.7278 11.308 70.3278 11.308C65.8838 11.308 62.8918 14.696 62.8918 19.58C62.8918 24.464 65.8838 27.852 70.3278 27.852Z" fill="black"/>
<path d="M46.4784 31.064C39.9224 31.064 35.3464 26.4 35.3464 19.58C35.3464 12.76 39.9224 8.096 46.4784 8.096C53.0344 8.096 57.6104 12.76 57.6104 19.58C57.6104 26.4 53.0344 31.064 46.4784 31.064ZM46.4784 27.852C50.9224 27.852 53.9144 24.376 53.9144 19.58C53.9144 14.784 50.9224 11.308 46.4784 11.308C42.0344 11.308 39.0424 14.784 39.0424 19.58C39.0424 24.376 42.0344 27.852 46.4784 27.852Z" fill="black"/>
<path d="M25.036 8.096C29.7 8.096 33.528 10.78 33.528 17.864V30.8H29.92V18.084C29.92 13.684 27.984 11.396 24.596 11.396C20.856 11.396 18.568 14.212 18.568 18.788V30.8H14.96V18.084C14.96 13.684 12.98 11.396 9.548 11.396C5.852 11.396 3.608 14.476 3.608 18.964V30.8H0V8.36H3.124L3.608 11.44C4.796 9.812 6.688 8.096 10.164 8.096C13.288 8.096 15.972 9.504 17.248 12.364C18.612 9.944 21.032 8.096 25.036 8.096Z" fill="black"/>
</svg>
